<svg width="231" height="30" viewBox="0 0 231 30" fill="none" xmlns="http://www.w3.org/2000/svg">
<rect x="228.777" y="12.7393" width="2.22222" height="3.52174" fill="#FCDA00"/>
<rect x="221" y="12.7393" width="2.59259" height="3.52174" fill="#FC8A32"/>
<rect x="223.223" y="10" width="5.55556" height="6.26087" fill="#FCDA00"/>
<rect x="223.223" y="16.2607" width="5.55556" height="2.73913" fill="#FDB016"/>
<rect x="211.777" y="12.7393" width="2.22222" height="3.52174" fill="#FCDA00"/>
<rect x="204" y="12.7393" width="2.59259" height="3.52174" fill="#FC8A32"/>
<rect x="206.223" y="10" width="5.55556" height="6.26087" fill="#FCDA00"/>
<rect x="206.223" y="16.2607" width="5.55556" height="2.73913" fill="#FDB016"/>
<rect x="194.777" y="12.7393" width="2.22222" height="3.52174" fill="#FCDA00"/>
<rect x="187" y="12.7393" width="2.59259" height="3.52174" fill="#FC8A32"/>
<rect x="189.223" y="10" width="5.55556" height="6.26087" fill="#FCDA00"/>
<rect x="189.223" y="16.2607" width="5.55556" height="2.73913" fill="#FDB016"/>
<rect x="177.777" y="12.7393" width="2.22222" height="3.52174" fill="#FCDA00"/>
<rect x="170" y="12.7393" width="2.59259" height="3.52174" fill="#FC8A32"/>
<rect x="172.223" y="10" width="5.55556" height="6.26087" fill="#FCDA00"/>
<rect x="172.223" y="16.2607" width="5.55556" height="2.73913" fill="#FDB016"/>
<rect x="160.777" y="12.7393" width="2.22222" height="3.52174" fill="#FCDA00"/>
<rect x="153" y="12.7393" width="2.59259" height="3.52174" fill="#FC8A32"/>
<rect x="155.223" y="10" width="5.55556" height="6.26087" fill="#FCDA00"/>
<rect x="155.223" y="16.2607" width="5.55556" height="2.73913" fill="#FDB016"/>
<rect x="143.777" y="12.7393" width="2.22222" height="3.52174" fill="#FCDA00"/>
<rect x="136" y="12.7393" width="2.59259" height="3.52174" fill="#FC8A32"/>
<rect x="138.223" y="10" width="5.55556" height="6.26087" fill="#FCDA00"/>
<rect x="138.223" y="16.2607" width="5.55556" height="2.73913" fill="#FDB016"/>
<rect x="126.777" y="12.7393" width="2.22222" height="3.52174" fill="#FCDA00"/>
<rect x="119" y="12.7393" width="2.59259" height="3.52174" fill="#FC8A32"/>
<rect x="121.223" y="10" width="5.55556" height="6.26087" fill="#FCDA00"/>
<rect x="121.223" y="16.2607" width="5.55556" height="2.73913" fill="#FDB016"/>
<rect x="109.777" y="12.7393" width="2.22222" height="3.52174" fill="#FCDA00"/>
<rect x="102" y="12.7393" width="2.59259" height="3.52174" fill="#FC8A32"/>
<rect x="104.223" y="10" width="5.55556" height="6.26087" fill="#FCDA00"/>
<rect x="104.223" y="16.2607" width="5.55556" height="2.73913" fill="#FDB016"/>
<rect x="92.7773" y="12.7393" width="2.22222" height="3.52174" fill="#FCDA00"/>
<rect x="85" y="12.7393" width="2.59259" height="3.52174" fill="#FC8A32"/>
<rect x="87.2227" y="10" width="5.55556" height="6.26087" fill="#FCDA00"/>
<rect x="87.2227" y="16.2607" width="5.55556" height="2.73913" fill="#FDB016"/>
<rect x="41.7773" y="12.7393" width="2.22222" height="3.52174" fill="#FCDA00"/>
<rect x="34" y="12.7393" width="2.59259" height="3.52174" fill="#FC8A32"/>
<rect x="36.2227" y="10" width="5.55556" height="6.26087" fill="#FCDA00"/>
<rect x="36.2227" y="16.2607" width="5.55556" height="2.73913" fill="#FDB016"/>
<rect x="24.7773" y="12.7393" width="2.22222" height="3.52174" fill="#FCDA00"/>
<rect x="17" y="12.7393" width="2.59259" height="3.52174" fill="#FC8A32"/>
<rect x="19.2227" y="10" width="5.55556" height="6.26087" fill="#FCDA00"/>
<rect x="19.2227" y="16.2607" width="5.55556" height="2.73913" fill="#FDB016"/>
<rect x="7.77734" y="12.7393" width="2.22222" height="3.52174" fill="#FCDA00"/>
<rect y="12.7393" width="2.59259" height="3.52174" fill="#FC8A32"/>
<rect x="2.22266" y="10" width="5.55556" height="6.26087" fill="#FCDA00"/>
<rect x="2.22266" y="16.2607" width="5.55556" height="2.73913" fill="#FDB016"/>
<rect x="52" y="8.75" width="4.04447" height="11.25" fill="#AD16B3"/>
<rect x="56.0449" y="15.625" width="4.62226" height="9.375" fill="#AD16B3"/>
<rect x="60.667" y="20" width="4.62226" height="10" fill="#AD16B3"/>
<rect x="65.2891" y="25" width="4.62226" height="5" fill="#AD16B3"/>
<rect x="56.0449" y="4.375" width="4.62226" height="5" fill="#FFFDFF"/>
<rect x="60.667" width="9.24451" height="5" fill="#FFFDFF"/>
<rect x="65.2891" y="4.375" width="8.66673" height="4.375" fill="#FFFDFF"/>
<rect x="69.9111" y="8.75" width="4.04447" height="4.375" fill="#FFFDFF"/>
<path d="M56.0449 9.375H60.6672V5H65.2894V8.75H69.9117V15.625H56.0449V9.375Z" fill="#E6297E"/>
<path d="M60.667 15.625H78.0005V20.3125H73.956V20H60.667V15.625Z" fill="#E6297E"/>
<path d="M65.2891 20H73.378H73.9558V25H65.2891V20Z" fill="#E6297E"/>
<path d="M69.9111 13.125H73.9556V8.4375H78.0001V13.125V15.625H69.9111V13.125Z" fill="#E6297E"/>
</svg>
