<svg width="30" height="32" viewBox="0 0 30 32" fill="none" xmlns="http://www.w3.org/2000/svg">
<path d="M29.1575 17.6198C29.1882 21.1735 27.8872 24.6098 25.5107 27.2521C23.1342 29.8943 19.8543 31.5509 16.3173 31.8955C16.3173 31.8955 7.09926 32.131 4.04899 31.8955C3.49045 31.8284 2.95961 31.6146 2.5105 31.2758C2.06139 30.937 1.71004 30.4853 1.49219 29.9666C1.92128 30.1556 2.38093 30.2658 2.8491 30.2918C3.84714 30.3816 5.5517 30.4264 7.92912 30.4264C11.4167 30.4264 15.2183 30.3255 15.252 30.3255H15.3193C19.1193 30.0027 22.653 28.2419 25.1989 25.4025C27.3826 22.9959 28.7657 19.971 29.1575 16.7451V17.6198Z" fill="#2A88FF"/>
<path d="M28.0365 14.4912C28.0639 18.0464 26.7584 21.483 24.3775 24.1234C21.9966 26.7637 18.7129 28.4164 15.1738 28.7556C15.1738 28.7556 5.95577 28.9911 2.90553 28.7556C2.08174 28.6278 1.33264 28.2045 0.798144 27.5647C0.263651 26.925 -0.0196861 26.1126 0.00106406 25.2792V3.55738C-0.009221 2.71969 0.287296 1.90717 0.834704 1.273C1.38212 0.638831 2.14261 0.226819 2.97282 0.114634C6.03427 -0.143292 15.2411 0.114634 15.2411 0.114634C18.7876 0.471176 22.0709 2.14666 24.4406 4.80923C26.8103 7.47177 28.0937 10.9272 28.0365 14.4912Z" fill="#2A88FF"/>
</svg>
