<svg width="107" height="55" viewBox="0 0 107 55" fill="none" xmlns="http://www.w3.org/2000/svg">
<mask id="path-1-outside-1_810_11" maskUnits="userSpaceOnUse" x="-7" y="0.108887" width="94" height="57" fill="black">
<rect fill="white" x="-7" y="0.108887" width="94" height="57"/>
<path d="M2.5 23.1089V20.8589H9.25V23.1089H2.5ZM0.25 20.8589V18.6089H2.5V20.8589H0.25ZM9.25 20.8589V16.3589H11.5V20.8589H9.25ZM2.5 16.3589V14.1089H9.25V16.3589H2.5ZM0.25 14.1089V9.60889H2.5V14.1089H0.25ZM9.25 11.8589V9.60889H11.5V11.8589H9.25ZM2.5 9.60889V7.35889H9.25V9.60889H2.5ZM18.25 23.1089V9.60889H13.75V7.35889H25V9.60889H20.5V23.1089H18.25ZM27.25 23.1089V11.8589H29.5V14.1089H36.25V11.8589H38.5V23.1089H36.25V16.3589H29.5V23.1089H27.25ZM29.5 11.8589V9.60889H31.75V11.8589H29.5ZM34 11.8589V9.60889H36.25V11.8589H34ZM31.75 9.60889V7.35889H34V9.60889H31.75ZM45.25 23.1089V9.60889H40.75V7.35889H52V9.60889H47.5V23.1089H45.25ZM56.5 23.1089V20.8589H63.25V23.1089H56.5ZM54.25 20.8589V7.35889H56.5V20.8589H54.25ZM63.25 20.8589V7.35889H65.5V20.8589H63.25ZM70 23.1089V20.8589H76.75V23.1089H70ZM67.75 20.8589V18.6089H70V20.8589H67.75ZM76.75 20.8589V16.3589H79V20.8589H76.75ZM70 16.3589V14.1089H76.75V16.3589H70ZM67.75 14.1089V9.60889H70V14.1089H67.75ZM76.75 11.8589V9.60889H79V11.8589H76.75ZM70 9.60889V7.35889H76.75V9.60889H70ZM3.6875 50.1089V46.6714H14V50.1089H3.6875ZM14 46.6714V43.2339H17.4375V46.6714H14ZM0.25 46.6714V29.4839H3.6875V46.6714H0.25ZM14 32.9214V29.4839H17.4375V32.9214H14ZM3.6875 29.4839V26.0464H14V29.4839H3.6875ZM24.3125 50.1089V46.6714H34.625V50.1089H24.3125ZM20.875 46.6714V29.4839H24.3125V46.6714H20.875ZM34.625 46.6714V29.4839H38.0625V46.6714H34.625ZM24.3125 29.4839V26.0464H34.625V29.4839H24.3125ZM55.25 46.6714V29.4839H58.6875V46.6714H55.25ZM41.5 50.1089V26.0464H55.25V29.4839H44.9375V46.6714H55.25V50.1089H41.5ZM62.125 50.1089V26.0464H79.3125V29.4839H65.5625V36.3589H75.875V39.7964H65.5625V46.6714H79.3125V50.1089H62.125Z"/>
</mask>
<path d="M2.5 23.1089V20.8589H9.25V23.1089H2.5ZM0.25 20.8589V18.6089H2.5V20.8589H0.25ZM9.25 20.8589V16.3589H11.5V20.8589H9.25ZM2.5 16.3589V14.1089H9.25V16.3589H2.5ZM0.25 14.1089V9.60889H2.5V14.1089H0.25ZM9.25 11.8589V9.60889H11.5V11.8589H9.25ZM2.5 9.60889V7.35889H9.25V9.60889H2.5ZM18.25 23.1089V9.60889H13.75V7.35889H25V9.60889H20.5V23.1089H18.25ZM27.25 23.1089V11.8589H29.5V14.1089H36.25V11.8589H38.5V23.1089H36.25V16.3589H29.5V23.1089H27.25ZM29.5 11.8589V9.60889H31.75V11.8589H29.5ZM34 11.8589V9.60889H36.25V11.8589H34ZM31.75 9.60889V7.35889H34V9.60889H31.75ZM45.25 23.1089V9.60889H40.75V7.35889H52V9.60889H47.5V23.1089H45.25ZM56.5 23.1089V20.8589H63.25V23.1089H56.5ZM54.25 20.8589V7.35889H56.5V20.8589H54.25ZM63.25 20.8589V7.35889H65.5V20.8589H63.25ZM70 23.1089V20.8589H76.75V23.1089H70ZM67.75 20.8589V18.6089H70V20.8589H67.75ZM76.75 20.8589V16.3589H79V20.8589H76.75ZM70 16.3589V14.1089H76.75V16.3589H70ZM67.75 14.1089V9.60889H70V14.1089H67.75ZM76.75 11.8589V9.60889H79V11.8589H76.75ZM70 9.60889V7.35889H76.75V9.60889H70ZM3.6875 50.1089V46.6714H14V50.1089H3.6875ZM14 46.6714V43.2339H17.4375V46.6714H14ZM0.25 46.6714V29.4839H3.6875V46.6714H0.25ZM14 32.9214V29.4839H17.4375V32.9214H14ZM3.6875 29.4839V26.0464H14V29.4839H3.6875ZM24.3125 50.1089V46.6714H34.625V50.1089H24.3125ZM20.875 46.6714V29.4839H24.3125V46.6714H20.875ZM34.625 46.6714V29.4839H38.0625V46.6714H34.625ZM24.3125 29.4839V26.0464H34.625V29.4839H24.3125ZM55.25 46.6714V29.4839H58.6875V46.6714H55.25ZM41.5 50.1089V26.0464H55.25V29.4839H44.9375V46.6714H55.25V50.1089H41.5ZM62.125 50.1089V26.0464H79.3125V29.4839H65.5625V36.3589H75.875V39.7964H65.5625V46.6714H79.3125V50.1089H62.125Z" fill="white"/>
<path d="M2.5 23.1089H-4.5C-4.5 26.9749 -1.36599 30.1089 2.5 30.1089V23.1089ZM2.5 20.8589V13.8589C-1.36599 13.8589 -4.5 16.9929 -4.5 20.8589H2.5ZM9.25 20.8589H16.25C16.25 16.9929 13.116 13.8589 9.25 13.8589V20.8589ZM9.25 23.1089V30.1089C13.116 30.1089 16.25 26.9749 16.25 23.1089H9.25ZM0.25 20.8589H-6.75C-6.75 24.7249 -3.61599 27.8589 0.25 27.8589V20.8589ZM0.25 18.6089V11.6089C-3.61599 11.6089 -6.75 14.7429 -6.75 18.6089H0.25ZM2.5 18.6089H9.5C9.5 14.7429 6.36599 11.6089 2.5 11.6089V18.6089ZM2.5 20.8589V27.8589C6.36599 27.8589 9.5 24.7249 9.5 20.8589H2.5ZM9.25 20.8589H2.25C2.25 24.7249 5.38401 27.8589 9.25 27.8589V20.8589ZM9.25 16.3589V9.35889C5.38401 9.35889 2.25 12.4929 2.25 16.3589H9.25ZM11.5 16.3589H18.5C18.5 12.4929 15.366 9.35889 11.5 9.35889V16.3589ZM11.5 20.8589V27.8589C15.366 27.8589 18.5 24.7249 18.5 20.8589H11.5ZM2.5 16.3589H-4.5C-4.5 20.2249 -1.36599 23.3589 2.5 23.3589V16.3589ZM2.5 14.1089V7.10889C-1.36599 7.10889 -4.5 10.2429 -4.5 14.1089H2.5ZM9.25 14.1089H16.25C16.25 10.2429 13.116 7.10889 9.25 7.10889V14.1089ZM9.25 16.3589V23.3589C13.116 23.3589 16.25 20.2249 16.25 16.3589H9.25ZM0.25 14.1089H-6.75C-6.75 17.9749 -3.61599 21.1089 0.25 21.1089V14.1089ZM0.25 9.60889V2.60889C-3.61599 2.60889 -6.75 5.74289 -6.75 9.60889H0.25ZM2.5 9.60889H9.5C9.5 5.74289 6.36599 2.60889 2.5 2.60889V9.60889ZM2.5 14.1089V21.1089C6.36599 21.1089 9.5 17.9749 9.5 14.1089H2.5ZM9.25 11.8589H2.25C2.25 15.7249 5.38401 18.8589 9.25 18.8589V11.8589ZM9.25 9.60889V2.60889C5.38401 2.60889 2.25 5.74289 2.25 9.60889H9.25ZM11.5 9.60889H18.5C18.5 5.74289 15.366 2.60889 11.5 2.60889V9.60889ZM11.5 11.8589V18.8589C15.366 18.8589 18.5 15.7249 18.5 11.8589H11.5ZM2.5 9.60889H-4.5C-4.5 13.4749 -1.36599 16.6089 2.5 16.6089V9.60889ZM2.5 7.35889V0.358887C-1.36599 0.358887 -4.5 3.49289 -4.5 7.35889H2.5ZM9.25 7.35889H16.25C16.25 3.49289 13.116 0.358887 9.25 0.358887V7.35889ZM9.25 9.60889V16.6089C13.116 16.6089 16.25 13.4749 16.25 9.60889H9.25ZM9.5 23.1089V20.8589H-4.5V23.1089H9.5ZM2.5 27.8589H9.25V13.8589H2.5V27.8589ZM2.25 20.8589V23.1089H16.25V20.8589H2.25ZM9.25 16.1089H2.5V30.1089H9.25V16.1089ZM7.25 20.8589V18.6089H-6.75V20.8589H7.25ZM0.25 25.6089H2.5V11.6089H0.25V25.6089ZM-4.5 18.6089V20.8589H9.5V18.6089H-4.5ZM2.5 13.8589H0.25V27.8589H2.5V13.8589ZM16.25 20.8589V16.3589H2.25V20.8589H16.25ZM9.25 23.3589H11.5V9.35889H9.25V23.3589ZM4.5 16.3589V20.8589H18.5V16.3589H4.5ZM11.5 13.8589H9.25V27.8589H11.5V13.8589ZM9.5 16.3589V14.1089H-4.5V16.3589H9.5ZM2.5 21.1089H9.25V7.10889H2.5V21.1089ZM2.25 14.1089V16.3589H16.25V14.1089H2.25ZM9.25 9.35889H2.5V23.3589H9.25V9.35889ZM7.25 14.1089V9.60889H-6.75V14.1089H7.25ZM0.25 16.6089H2.5V2.60889H0.25V16.6089ZM-4.5 9.60889V14.1089H9.5V9.60889H-4.5ZM2.5 7.10889H0.25V21.1089H2.5V7.10889ZM16.25 11.8589V9.60889H2.25V11.8589H16.25ZM9.25 16.6089H11.5V2.60889H9.25V16.6089ZM4.5 9.60889V11.8589H18.5V9.60889H4.5ZM11.5 4.85889H9.25V18.8589H11.5V4.85889ZM9.5 9.60889V7.35889H-4.5V9.60889H9.5ZM2.5 14.3589H9.25V0.358887H2.5V14.3589ZM2.25 7.35889V9.60889H16.25V7.35889H2.25ZM9.25 2.60889H2.5V16.6089H9.25V2.60889ZM18.25 23.1089H11.25C11.25 26.9749 14.384 30.1089 18.25 30.1089V23.1089ZM18.25 9.60889H25.25C25.25 5.74289 22.116 2.60889 18.25 2.60889V9.60889ZM13.75 9.60889H6.75C6.75 13.4749 9.88401 16.6089 13.75 16.6089V9.60889ZM13.75 7.35889V0.358887C9.88401 0.358887 6.75 3.49289 6.75 7.35889H13.75ZM25 7.35889H32C32 3.49289 28.866 0.358887 25 0.358887V7.35889ZM25 9.60889V16.6089C28.866 16.6089 32 13.4749 32 9.60889H25ZM20.5 9.60889V2.60889C16.634 2.60889 13.5 5.74289 13.5 9.60889H20.5ZM20.5 23.1089V30.1089C24.366 30.1089 27.5 26.9749 27.5 23.1089H20.5ZM25.25 23.1089V9.60889H11.25V23.1089H25.25ZM18.25 2.60889H13.75V16.6089H18.25V2.60889ZM20.75 9.60889V7.35889H6.75V9.60889H20.75ZM13.75 14.3589H25V0.358887H13.75V14.3589ZM18 7.35889V9.60889H32V7.35889H18ZM25 2.60889H20.5V16.6089H25V2.60889ZM13.5 9.60889V23.1089H27.5V9.60889H13.5ZM20.5 16.1089H18.25V30.1089H20.5V16.1089ZM27.25 23.1089H20.25C20.25 26.9749 23.384 30.1089 27.25 30.1089V23.1089ZM27.25 11.8589V4.85889C23.384 4.85889 20.25 7.99289 20.25 11.8589H27.25ZM29.5 11.8589H36.5C36.5 7.99289 33.366 4.85889 29.5 4.85889V11.8589ZM29.5 14.1089H22.5C22.5 17.9749 25.634 21.1089 29.5 21.1089V14.1089ZM36.25 14.1089V21.1089C40.116 21.1089 43.25 17.9749 43.25 14.1089H36.25ZM36.25 11.8589V4.85889C32.384 4.85889 29.25 7.99289 29.25 11.8589H36.25ZM38.5 11.8589H45.5C45.5 7.99289 42.366 4.85889 38.5 4.85889V11.8589ZM38.5 23.1089V30.1089C42.366 30.1089 45.5 26.9749 45.5 23.1089H38.5ZM36.25 23.1089H29.25C29.25 26.9749 32.384 30.1089 36.25 30.1089V23.1089ZM36.25 16.3589H43.25C43.25 12.4929 40.116 9.35889 36.25 9.35889V16.3589ZM29.5 16.3589V9.35889C25.634 9.35889 22.5 12.4929 22.5 16.3589H29.5ZM29.5 23.1089V30.1089C33.366 30.1089 36.5 26.9749 36.5 23.1089H29.5ZM29.5 11.8589H22.5C22.5 15.7249 25.634 18.8589 29.5 18.8589V11.8589ZM29.5 9.60889V2.60889C25.634 2.60889 22.5 5.74289 22.5 9.60889H29.5ZM31.75 9.60889H38.75C38.75 5.74289 35.616 2.60889 31.75 2.60889V9.60889ZM31.75 11.8589V18.8589C35.616 18.8589 38.75 15.7249 38.75 11.8589H31.75ZM34 11.8589H27C27 15.7249 30.134 18.8589 34 18.8589V11.8589ZM34 9.60889V2.60889C30.134 2.60889 27 5.74289 27 9.60889H34ZM36.25 9.60889H43.25C43.25 5.74289 40.116 2.60889 36.25 2.60889V9.60889ZM36.25 11.8589V18.8589C40.116 18.8589 43.25 15.7249 43.25 11.8589H36.25ZM31.75 9.60889H24.75C24.75 13.4749 27.884 16.6089 31.75 16.6089V9.60889ZM31.75 7.35889V0.358887C27.884 0.358887 24.75 3.49289 24.75 7.35889H31.75ZM34 7.35889H41C41 3.49289 37.866 0.358887 34 0.358887V7.35889ZM34 9.60889V16.6089C37.866 16.6089 41 13.4749 41 9.60889H34ZM34.25 23.1089V11.8589H20.25V23.1089H34.25ZM27.25 18.8589H29.5V4.85889H27.25V18.8589ZM22.5 11.8589V14.1089H36.5V11.8589H22.5ZM29.5 21.1089H36.25V7.10889H29.5V21.1089ZM43.25 14.1089V11.8589H29.25V14.1089H43.25ZM36.25 18.8589H38.5V4.85889H36.25V18.8589ZM31.5 11.8589V23.1089H45.5V11.8589H31.5ZM38.5 16.1089H36.25V30.1089H38.5V16.1089ZM43.25 23.1089V16.3589H29.25V23.1089H43.25ZM36.25 9.35889H29.5V23.3589H36.25V9.35889ZM22.5 16.3589V23.1089H36.5V16.3589H22.5ZM29.5 16.1089H27.25V30.1089H29.5V16.1089ZM36.5 11.8589V9.60889H22.5V11.8589H36.5ZM29.5 16.6089H31.75V2.60889H29.5V16.6089ZM24.75 9.60889V11.8589H38.75V9.60889H24.75ZM31.75 4.85889H29.5V18.8589H31.75V4.85889ZM41 11.8589V9.60889H27V11.8589H41ZM34 16.6089H36.25V2.60889H34V16.6089ZM29.25 9.60889V11.8589H43.25V9.60889H29.25ZM36.25 4.85889H34V18.8589H36.25V4.85889ZM38.75 9.60889V7.35889H24.75V9.60889H38.75ZM31.75 14.3589H34V0.358887H31.75V14.3589ZM27 7.35889V9.60889H41V7.35889H27ZM34 2.60889H31.75V16.6089H34V2.60889ZM45.25 23.1089H38.25C38.25 26.9749 41.384 30.1089 45.25 30.1089V23.1089ZM45.25 9.60889H52.25C52.25 5.74289 49.116 2.60889 45.25 2.60889V9.60889ZM40.75 9.60889H33.75C33.75 13.4749 36.884 16.6089 40.75 16.6089V9.60889ZM40.75 7.35889V0.358887C36.884 0.358887 33.75 3.49289 33.75 7.35889H40.75ZM52 7.35889H59C59 3.49289 55.866 0.358887 52 0.358887V7.35889ZM52 9.60889V16.6089C55.866 16.6089 59 13.4749 59 9.60889H52ZM47.5 9.60889V2.60889C43.634 2.60889 40.5 5.74289 40.5 9.60889H47.5ZM47.5 23.1089V30.1089C51.366 30.1089 54.5 26.9749 54.5 23.1089H47.5ZM52.25 23.1089V9.60889H38.25V23.1089H52.25ZM45.25 2.60889H40.75V16.6089H45.25V2.60889ZM47.75 9.60889V7.35889H33.75V9.60889H47.75ZM40.75 14.3589H52V0.358887H40.75V14.3589ZM45 7.35889V9.60889H59V7.35889H45ZM52 2.60889H47.5V16.6089H52V2.60889ZM40.5 9.60889V23.1089H54.5V9.60889H40.5ZM47.5 16.1089H45.25V30.1089H47.5V16.1089ZM56.5 23.1089H49.5C49.5 26.9749 52.634 30.1089 56.5 30.1089V23.1089ZM56.5 20.8589V13.8589C52.634 13.8589 49.5 16.9929 49.5 20.8589H56.5ZM63.25 20.8589H70.25C70.25 16.9929 67.116 13.8589 63.25 13.8589V20.8589ZM63.25 23.1089V30.1089C67.116 30.1089 70.25 26.9749 70.25 23.1089H63.25ZM54.25 20.8589H47.25C47.25 24.7249 50.384 27.8589 54.25 27.8589V20.8589ZM54.25 7.35889V0.358887C50.384 0.358887 47.25 3.49289 47.25 7.35889H54.25ZM56.5 7.35889H63.5C63.5 3.49289 60.366 0.358887 56.5 0.358887V7.35889ZM56.5 20.8589V27.8589C60.366 27.8589 63.5 24.7249 63.5 20.8589H56.5ZM63.25 20.8589H56.25C56.25 24.7249 59.384 27.8589 63.25 27.8589V20.8589ZM63.25 7.35889V0.358887C59.384 0.358887 56.25 3.49289 56.25 7.35889H63.25ZM65.5 7.35889H72.5C72.5 3.49289 69.366 0.358887 65.5 0.358887V7.35889ZM65.5 20.8589V27.8589C69.366 27.8589 72.5 24.7249 72.5 20.8589H65.5ZM63.5 23.1089V20.8589H49.5V23.1089H63.5ZM56.5 27.8589H63.25V13.8589H56.5V27.8589ZM56.25 20.8589V23.1089H70.25V20.8589H56.25ZM63.25 16.1089H56.5V30.1089H63.25V16.1089ZM61.25 20.8589V7.35889H47.25V20.8589H61.25ZM54.25 14.3589H56.5V0.358887H54.25V14.3589ZM49.5 7.35889V20.8589H63.5V7.35889H49.5ZM56.5 13.8589H54.25V27.8589H56.5V13.8589ZM70.25 20.8589V7.35889H56.25V20.8589H70.25ZM63.25 14.3589H65.5V0.358887H63.25V14.3589ZM58.5 7.35889V20.8589H72.5V7.35889H58.5ZM65.5 13.8589H63.25V27.8589H65.5V13.8589ZM70 23.1089H63C63 26.9749 66.134 30.1089 70 30.1089V23.1089ZM70 20.8589V13.8589C66.134 13.8589 63 16.9929 63 20.8589H70ZM76.75 20.8589H83.75C83.75 16.9929 80.616 13.8589 76.75 13.8589V20.8589ZM76.75 23.1089V30.1089C80.616 30.1089 83.75 26.9749 83.75 23.1089H76.75ZM67.75 20.8589H60.75C60.75 24.7249 63.884 27.8589 67.75 27.8589V20.8589ZM67.75 18.6089V11.6089C63.884 11.6089 60.75 14.7429 60.75 18.6089H67.75ZM70 18.6089H77C77 14.7429 73.866 11.6089 70 11.6089V18.6089ZM70 20.8589V27.8589C73.866 27.8589 77 24.7249 77 20.8589H70ZM76.75 20.8589H69.75C69.75 24.7249 72.884 27.8589 76.75 27.8589V20.8589ZM76.75 16.3589V9.35889C72.884 9.35889 69.75 12.4929 69.75 16.3589H76.75ZM79 16.3589H86C86 12.4929 82.866 9.35889 79 9.35889V16.3589ZM79 20.8589V27.8589C82.866 27.8589 86 24.7249 86 20.8589H79ZM70 16.3589H63C63 20.2249 66.134 23.3589 70 23.3589V16.3589ZM70 14.1089V7.10889C66.134 7.10889 63 10.2429 63 14.1089H70ZM76.75 14.1089H83.75C83.75 10.2429 80.616 7.10889 76.75 7.10889V14.1089ZM76.75 16.3589V23.3589C80.616 23.3589 83.75 20.2249 83.75 16.3589H76.75ZM67.75 14.1089H60.75C60.75 17.9749 63.884 21.1089 67.75 21.1089V14.1089ZM67.75 9.60889V2.60889C63.884 2.60889 60.75 5.74289 60.75 9.60889H67.75ZM70 9.60889H77C77 5.74289 73.866 2.60889 70 2.60889V9.60889ZM70 14.1089V21.1089C73.866 21.1089 77 17.9749 77 14.1089H70ZM76.75 11.8589H69.75C69.75 15.7249 72.884 18.8589 76.75 18.8589V11.8589ZM76.75 9.60889V2.60889C72.884 2.60889 69.75 5.74289 69.75 9.60889H76.75ZM79 9.60889H86C86 5.74289 82.866 2.60889 79 2.60889V9.60889ZM79 11.8589V18.8589C82.866 18.8589 86 15.7249 86 11.8589H79ZM70 9.60889H63C63 13.4749 66.134 16.6089 70 16.6089V9.60889ZM70 7.35889V0.358887C66.134 0.358887 63 3.49289 63 7.35889H70ZM76.75 7.35889H83.75C83.75 3.49289 80.616 0.358887 76.75 0.358887V7.35889ZM76.75 9.60889V16.6089C80.616 16.6089 83.75 13.4749 83.75 9.60889H76.75ZM77 23.1089V20.8589H63V23.1089H77ZM70 27.8589H76.75V13.8589H70V27.8589ZM69.75 20.8589V23.1089H83.75V20.8589H69.75ZM76.75 16.1089H70V30.1089H76.75V16.1089ZM74.75 20.8589V18.6089H60.75V20.8589H74.75ZM67.75 25.6089H70V11.6089H67.75V25.6089ZM63 18.6089V20.8589H77V18.6089H63ZM70 13.8589H67.75V27.8589H70V13.8589ZM83.75 20.8589V16.3589H69.75V20.8589H83.75ZM76.75 23.3589H79V9.35889H76.75V23.3589ZM72 16.3589V20.8589H86V16.3589H72ZM79 13.8589H76.75V27.8589H79V13.8589ZM77 16.3589V14.1089H63V16.3589H77ZM70 21.1089H76.75V7.10889H70V21.1089ZM69.75 14.1089V16.3589H83.75V14.1089H69.75ZM76.75 9.35889H70V23.3589H76.75V9.35889ZM74.75 14.1089V9.60889H60.75V14.1089H74.75ZM67.75 16.6089H70V2.60889H67.75V16.6089ZM63 9.60889V14.1089H77V9.60889H63ZM70 7.10889H67.75V21.1089H70V7.10889ZM83.75 11.8589V9.60889H69.75V11.8589H83.75ZM76.75 16.6089H79V2.60889H76.75V16.6089ZM72 9.60889V11.8589H86V9.60889H72ZM79 4.85889H76.75V18.8589H79V4.85889ZM77 9.60889V7.35889H63V9.60889H77ZM70 14.3589H76.75V0.358887H70V14.3589ZM69.75 7.35889V9.60889H83.75V7.35889H69.75ZM76.75 2.60889H70V16.6089H76.75V2.60889ZM3.6875 50.1089H-3.3125C-3.3125 53.9749 -0.178493 57.1089 3.6875 57.1089V50.1089ZM3.6875 46.6714V39.6714C-0.178493 39.6714 -3.3125 42.8054 -3.3125 46.6714H3.6875ZM14 46.6714H21C21 42.8054 17.866 39.6714 14 39.6714V46.6714ZM14 50.1089V57.1089C17.866 57.1089 21 53.9749 21 50.1089H14ZM14 46.6714H7C7 50.5374 10.134 53.6714 14 53.6714V46.6714ZM14 43.2339V36.2339C10.134 36.2339 7 39.3679 7 43.2339H14ZM17.4375 43.2339H24.4375C24.4375 39.3679 21.3035 36.2339 17.4375 36.2339V43.2339ZM17.4375 46.6714V53.6714C21.3035 53.6714 24.4375 50.5374 24.4375 46.6714H17.4375ZM0.25 46.6714H-6.75C-6.75 50.5374 -3.61599 53.6714 0.25 53.6714V46.6714ZM0.25 29.4839V22.4839C-3.61599 22.4839 -6.75 25.6179 -6.75 29.4839H0.25ZM3.6875 29.4839H10.6875C10.6875 25.6179 7.55349 22.4839 3.6875 22.4839V29.4839ZM3.6875 46.6714V53.6714C7.55349 53.6714 10.6875 50.5374 10.6875 46.6714H3.6875ZM14 32.9214H7C7 36.7874 10.134 39.9214 14 39.9214V32.9214ZM14 29.4839V22.4839C10.134 22.4839 7 25.6179 7 29.4839H14ZM17.4375 29.4839H24.4375C24.4375 25.6179 21.3035 22.4839 17.4375 22.4839V29.4839ZM17.4375 32.9214V39.9214C21.3035 39.9214 24.4375 36.7874 24.4375 32.9214H17.4375ZM3.6875 29.4839H-3.3125C-3.3125 33.3499 -0.178493 36.4839 3.6875 36.4839V29.4839ZM3.6875 26.0464V19.0464C-0.178493 19.0464 -3.3125 22.1804 -3.3125 26.0464H3.6875ZM14 26.0464H21C21 22.1804 17.866 19.0464 14 19.0464V26.0464ZM14 29.4839V36.4839C17.866 36.4839 21 33.3499 21 29.4839H14ZM10.6875 50.1089V46.6714H-3.3125V50.1089H10.6875ZM3.6875 53.6714H14V39.6714H3.6875V53.6714ZM7 46.6714V50.1089H21V46.6714H7ZM14 43.1089H3.6875V57.1089H14V43.1089ZM21 46.6714V43.2339H7V46.6714H21ZM14 50.2339H17.4375V36.2339H14V50.2339ZM10.4375 43.2339V46.6714H24.4375V43.2339H10.4375ZM17.4375 39.6714H14V53.6714H17.4375V39.6714ZM7.25 46.6714V29.4839H-6.75V46.6714H7.25ZM0.25 36.4839H3.6875V22.4839H0.25V36.4839ZM-3.3125 29.4839V46.6714H10.6875V29.4839H-3.3125ZM3.6875 39.6714H0.25V53.6714H3.6875V39.6714ZM21 32.9214V29.4839H7V32.9214H21ZM14 36.4839H17.4375V22.4839H14V36.4839ZM10.4375 29.4839V32.9214H24.4375V29.4839H10.4375ZM17.4375 25.9214H14V39.9214H17.4375V25.9214ZM10.6875 29.4839V26.0464H-3.3125V29.4839H10.6875ZM3.6875 33.0464H14V19.0464H3.6875V33.0464ZM7 26.0464V29.4839H21V26.0464H7ZM14 22.4839H3.6875V36.4839H14V22.4839ZM24.3125 50.1089H17.3125C17.3125 53.9749 20.4465 57.1089 24.3125 57.1089V50.1089ZM24.3125 46.6714V39.6714C20.4465 39.6714 17.3125 42.8054 17.3125 46.6714H24.3125ZM34.625 46.6714H41.625C41.625 42.8054 38.491 39.6714 34.625 39.6714V46.6714ZM34.625 50.1089V57.1089C38.491 57.1089 41.625 53.9749 41.625 50.1089H34.625ZM20.875 46.6714H13.875C13.875 50.5374 17.009 53.6714 20.875 53.6714V46.6714ZM20.875 29.4839V22.4839C17.009 22.4839 13.875 25.6179 13.875 29.4839H20.875ZM24.3125 29.4839H31.3125C31.3125 25.6179 28.1785 22.4839 24.3125 22.4839V29.4839ZM24.3125 46.6714V53.6714C28.1785 53.6714 31.3125 50.5374 31.3125 46.6714H24.3125ZM34.625 46.6714H27.625C27.625 50.5374 30.759 53.6714 34.625 53.6714V46.6714ZM34.625 29.4839V22.4839C30.759 22.4839 27.625 25.6179 27.625 29.4839H34.625ZM38.0625 29.4839H45.0625C45.0625 25.6179 41.9285 22.4839 38.0625 22.4839V29.4839ZM38.0625 46.6714V53.6714C41.9285 53.6714 45.0625 50.5374 45.0625 46.6714H38.0625ZM24.3125 29.4839H17.3125C17.3125 33.3499 20.4465 36.4839 24.3125 36.4839V29.4839ZM24.3125 26.0464V19.0464C20.4465 19.0464 17.3125 22.1804 17.3125 26.0464H24.3125ZM34.625 26.0464H41.625C41.625 22.1804 38.491 19.0464 34.625 19.0464V26.0464ZM34.625 29.4839V36.4839C38.491 36.4839 41.625 33.3499 41.625 29.4839H34.625ZM31.3125 50.1089V46.6714H17.3125V50.1089H31.3125ZM24.3125 53.6714H34.625V39.6714H24.3125V53.6714ZM27.625 46.6714V50.1089H41.625V46.6714H27.625ZM34.625 43.1089H24.3125V57.1089H34.625V43.1089ZM27.875 46.6714V29.4839H13.875V46.6714H27.875ZM20.875 36.4839H24.3125V22.4839H20.875V36.4839ZM17.3125 29.4839V46.6714H31.3125V29.4839H17.3125ZM24.3125 39.6714H20.875V53.6714H24.3125V39.6714ZM41.625 46.6714V29.4839H27.625V46.6714H41.625ZM34.625 36.4839H38.0625V22.4839H34.625V36.4839ZM31.0625 29.4839V46.6714H45.0625V29.4839H31.0625ZM38.0625 39.6714H34.625V53.6714H38.0625V39.6714ZM31.3125 29.4839V26.0464H17.3125V29.4839H31.3125ZM24.3125 33.0464H34.625V19.0464H24.3125V33.0464ZM27.625 26.0464V29.4839H41.625V26.0464H27.625ZM34.625 22.4839H24.3125V36.4839H34.625V22.4839ZM55.25 46.6714H48.25C48.25 50.5374 51.384 53.6714 55.25 53.6714V46.6714ZM55.25 29.4839V22.4839C51.384 22.4839 48.25 25.6179 48.25 29.4839H55.25ZM58.6875 29.4839H65.6875C65.6875 25.6179 62.5535 22.4839 58.6875 22.4839V29.4839ZM58.6875 46.6714V53.6714C62.5535 53.6714 65.6875 50.5374 65.6875 46.6714H58.6875ZM41.5 50.1089H34.5C34.5 53.9749 37.634 57.1089 41.5 57.1089V50.1089ZM41.5 26.0464V19.0464C37.634 19.0464 34.5 22.1804 34.5 26.0464H41.5ZM55.25 26.0464H62.25C62.25 22.1804 59.116 19.0464 55.25 19.0464V26.0464ZM55.25 29.4839V36.4839C59.116 36.4839 62.25 33.3499 62.25 29.4839H55.25ZM44.9375 29.4839V22.4839C41.0715 22.4839 37.9375 25.6179 37.9375 29.4839H44.9375ZM44.9375 46.6714H37.9375C37.9375 50.5374 41.0715 53.6714 44.9375 53.6714V46.6714ZM55.25 46.6714H62.25C62.25 42.8054 59.116 39.6714 55.25 39.6714V46.6714ZM55.25 50.1089V57.1089C59.116 57.1089 62.25 53.9749 62.25 50.1089H55.25ZM62.25 46.6714V29.4839H48.25V46.6714H62.25ZM55.25 36.4839H58.6875V22.4839H55.25V36.4839ZM51.6875 29.4839V46.6714H65.6875V29.4839H51.6875ZM58.6875 39.6714H55.25V53.6714H58.6875V39.6714ZM48.5 50.1089V26.0464H34.5V50.1089H48.5ZM41.5 33.0464H55.25V19.0464H41.5V33.0464ZM48.25 26.0464V29.4839H62.25V26.0464H48.25ZM55.25 22.4839H44.9375V36.4839H55.25V22.4839ZM37.9375 29.4839V46.6714H51.9375V29.4839H37.9375ZM44.9375 53.6714H55.25V39.6714H44.9375V53.6714ZM48.25 46.6714V50.1089H62.25V46.6714H48.25ZM55.25 43.1089H41.5V57.1089H55.25V43.1089ZM62.125 50.1089H55.125C55.125 53.9749 58.259 57.1089 62.125 57.1089V50.1089ZM62.125 26.0464V19.0464C58.259 19.0464 55.125 22.1804 55.125 26.0464H62.125ZM79.3125 26.0464H86.3125C86.3125 22.1804 83.1785 19.0464 79.3125 19.0464V26.0464ZM79.3125 29.4839V36.4839C83.1785 36.4839 86.3125 33.3499 86.3125 29.4839H79.3125ZM65.5625 29.4839V22.4839C61.6965 22.4839 58.5625 25.6179 58.5625 29.4839H65.5625ZM65.5625 36.3589H58.5625C58.5625 40.2249 61.6965 43.3589 65.5625 43.3589V36.3589ZM75.875 36.3589H82.875C82.875 32.4929 79.741 29.3589 75.875 29.3589V36.3589ZM75.875 39.7964V46.7964C79.741 46.7964 82.875 43.6624 82.875 39.7964H75.875ZM65.5625 39.7964V32.7964C61.6965 32.7964 58.5625 35.9304 58.5625 39.7964H65.5625ZM65.5625 46.6714H58.5625C58.5625 50.5374 61.6965 53.6714 65.5625 53.6714V46.6714ZM79.3125 46.6714H86.3125C86.3125 42.8054 83.1785 39.6714 79.3125 39.6714V46.6714ZM79.3125 50.1089V57.1089C83.1785 57.1089 86.3125 53.9749 86.3125 50.1089H79.3125ZM69.125 50.1089V26.0464H55.125V50.1089H69.125ZM62.125 33.0464H79.3125V19.0464H62.125V33.0464ZM72.3125 26.0464V29.4839H86.3125V26.0464H72.3125ZM79.3125 22.4839H65.5625V36.4839H79.3125V22.4839ZM58.5625 29.4839V36.3589H72.5625V29.4839H58.5625ZM65.5625 43.3589H75.875V29.3589H65.5625V43.3589ZM68.875 36.3589V39.7964H82.875V36.3589H68.875ZM75.875 32.7964H65.5625V46.7964H75.875V32.7964ZM58.5625 39.7964V46.6714H72.5625V39.7964H58.5625ZM65.5625 53.6714H79.3125V39.6714H65.5625V53.6714ZM72.3125 46.6714V50.1089H86.3125V46.6714H72.3125ZM79.3125 43.1089H62.125V57.1089H79.3125V43.1089Z" fill="#181917" mask="url(#path-1-outside-1_810_11)"/>
<mask id="path-3-outside-2_810_11" maskUnits="userSpaceOnUse" x="79" y="1" width="31" height="56" fill="black">
<rect fill="white" x="79" y="1" width="31" height="56"/>
<path d="M85 51V44.75H91.25V19.75H85V13.5H91.25V7.25H97.5V44.75H103.75V51H85Z"/>
</mask>
<path d="M85 51V44.75H91.25V19.75H85V13.5H91.25V7.25H97.5V44.75H103.75V51H85Z" fill="#E5141F"/>
<path d="M85 51H79C79 54.3137 81.6863 57 85 57V51ZM85 44.75V38.75C81.6863 38.75 79 41.4363 79 44.75H85ZM91.25 44.75V50.75C94.5637 50.75 97.25 48.0637 97.25 44.75H91.25ZM91.25 19.75H97.25C97.25 16.4363 94.5637 13.75 91.25 13.75V19.75ZM85 19.75H79C79 23.0637 81.6863 25.75 85 25.75V19.75ZM85 13.5V7.5C81.6863 7.5 79 10.1863 79 13.5H85ZM91.25 13.5V19.5C94.5637 19.5 97.25 16.8137 97.25 13.5H91.25ZM91.25 7.25V1.25C87.9363 1.25 85.25 3.93629 85.25 7.25H91.25ZM97.5 7.25H103.5C103.5 3.93629 100.814 1.25 97.5 1.25V7.25ZM97.5 44.75H91.5C91.5 48.0637 94.1863 50.75 97.5 50.75V44.75ZM103.75 44.75H109.75C109.75 41.4363 107.064 38.75 103.75 38.75V44.75ZM103.75 51V57C107.064 57 109.75 54.3137 109.75 51H103.75ZM91 51V44.75H79V51H91ZM85 50.75H91.25V38.75H85V50.75ZM97.25 44.75V19.75H85.25V44.75H97.25ZM91.25 13.75H85V25.75H91.25V13.75ZM91 19.75V13.5H79V19.75H91ZM85 19.5H91.25V7.5H85V19.5ZM97.25 13.5V7.25H85.25V13.5H97.25ZM91.25 13.25H97.5V1.25H91.25V13.25ZM91.5 7.25V44.75H103.5V7.25H91.5ZM97.5 50.75H103.75V38.75H97.5V50.75ZM97.75 44.75V51H109.75V44.75H97.75ZM103.75 45H85V57H103.75V45Z" fill="#181917" mask="url(#path-3-outside-2_810_11)"/>
<rect x="82" y="24" width="7" height="17" fill="#181917"/>
<ellipse cx="84.5" cy="4" rx="6.5" ry="4" fill="#181917"/>
</svg>
