<svg width="117" height="57" viewBox="0 0 117 57" fill="none" xmlns="http://www.w3.org/2000/svg">
<mask id="path-1-outside-1_2126_2" maskUnits="userSpaceOnUse" x="0" y="0.108887" width="94" height="57" fill="black">
<rect fill="white" y="0.108887" width="94" height="57"/>
<path d="M9.5 23.1089V20.8589H16.25V23.1089H9.5ZM7.25 20.8589V18.6089H9.5V20.8589H7.25ZM16.25 20.8589V16.3589H18.5V20.8589H16.25ZM9.5 16.3589V14.1089H16.25V16.3589H9.5ZM7.25 14.1089V9.60889H9.5V14.1089H7.25ZM16.25 11.8589V9.60889H18.5V11.8589H16.25ZM9.5 9.60889V7.35889H16.25V9.60889H9.5ZM25.25 23.1089V9.60889H20.75V7.35889H32V9.60889H27.5V23.1089H25.25ZM34.25 23.1089V11.8589H36.5V14.1089H43.25V11.8589H45.5V23.1089H43.25V16.3589H36.5V23.1089H34.25ZM36.5 11.8589V9.60889H38.75V11.8589H36.5ZM41 11.8589V9.60889H43.25V11.8589H41ZM38.75 9.60889V7.35889H41V9.60889H38.75ZM52.25 23.1089V9.60889H47.75V7.35889H59V9.60889H54.5V23.1089H52.25ZM63.5 23.1089V20.8589H70.25V23.1089H63.5ZM61.25 20.8589V7.35889H63.5V20.8589H61.25ZM70.25 20.8589V7.35889H72.5V20.8589H70.25ZM77 23.1089V20.8589H83.75V23.1089H77ZM74.75 20.8589V18.6089H77V20.8589H74.75ZM83.75 20.8589V16.3589H86V20.8589H83.75ZM77 16.3589V14.1089H83.75V16.3589H77ZM74.75 14.1089V9.60889H77V14.1089H74.75ZM83.75 11.8589V9.60889H86V11.8589H83.75ZM77 9.60889V7.35889H83.75V9.60889H77ZM10.6875 50.1089V46.6714H21V50.1089H10.6875ZM21 46.6714V43.2339H24.4375V46.6714H21ZM7.25 46.6714V29.4839H10.6875V46.6714H7.25ZM21 32.9214V29.4839H24.4375V32.9214H21ZM10.6875 29.4839V26.0464H21V29.4839H10.6875ZM31.3125 50.1089V46.6714H41.625V50.1089H31.3125ZM27.875 46.6714V29.4839H31.3125V46.6714H27.875ZM41.625 46.6714V29.4839H45.0625V46.6714H41.625ZM31.3125 29.4839V26.0464H41.625V29.4839H31.3125ZM62.25 46.6714V29.4839H65.6875V46.6714H62.25ZM48.5 50.1089V26.0464H62.25V29.4839H51.9375V46.6714H62.25V50.1089H48.5ZM69.125 50.1089V26.0464H86.3125V29.4839H72.5625V36.3589H82.875V39.7964H72.5625V46.6714H86.3125V50.1089H69.125Z"/>
</mask>
<path d="M9.5 23.1089V20.8589H16.25V23.1089H9.5ZM7.25 20.8589V18.6089H9.5V20.8589H7.25ZM16.25 20.8589V16.3589H18.5V20.8589H16.25ZM9.5 16.3589V14.1089H16.25V16.3589H9.5ZM7.25 14.1089V9.60889H9.5V14.1089H7.25ZM16.25 11.8589V9.60889H18.5V11.8589H16.25ZM9.5 9.60889V7.35889H16.25V9.60889H9.5ZM25.25 23.1089V9.60889H20.75V7.35889H32V9.60889H27.5V23.1089H25.25ZM34.25 23.1089V11.8589H36.5V14.1089H43.25V11.8589H45.5V23.1089H43.25V16.3589H36.5V23.1089H34.25ZM36.5 11.8589V9.60889H38.75V11.8589H36.5ZM41 11.8589V9.60889H43.25V11.8589H41ZM38.75 9.60889V7.35889H41V9.60889H38.75ZM52.25 23.1089V9.60889H47.75V7.35889H59V9.60889H54.5V23.1089H52.25ZM63.5 23.1089V20.8589H70.25V23.1089H63.5ZM61.25 20.8589V7.35889H63.5V20.8589H61.25ZM70.25 20.8589V7.35889H72.5V20.8589H70.25ZM77 23.1089V20.8589H83.75V23.1089H77ZM74.75 20.8589V18.6089H77V20.8589H74.75ZM83.75 20.8589V16.3589H86V20.8589H83.75ZM77 16.3589V14.1089H83.75V16.3589H77ZM74.75 14.1089V9.60889H77V14.1089H74.75ZM83.75 11.8589V9.60889H86V11.8589H83.75ZM77 9.60889V7.35889H83.75V9.60889H77ZM10.6875 50.1089V46.6714H21V50.1089H10.6875ZM21 46.6714V43.2339H24.4375V46.6714H21ZM7.25 46.6714V29.4839H10.6875V46.6714H7.25ZM21 32.9214V29.4839H24.4375V32.9214H21ZM10.6875 29.4839V26.0464H21V29.4839H10.6875ZM31.3125 50.1089V46.6714H41.625V50.1089H31.3125ZM27.875 46.6714V29.4839H31.3125V46.6714H27.875ZM41.625 46.6714V29.4839H45.0625V46.6714H41.625ZM31.3125 29.4839V26.0464H41.625V29.4839H31.3125ZM62.25 46.6714V29.4839H65.6875V46.6714H62.25ZM48.5 50.1089V26.0464H62.25V29.4839H51.9375V46.6714H62.25V50.1089H48.5ZM69.125 50.1089V26.0464H86.3125V29.4839H72.5625V36.3589H82.875V39.7964H72.5625V46.6714H86.3125V50.1089H69.125Z" fill="white"/>
<path d="M9.5 23.1089H2.5C2.5 26.9749 5.63401 30.1089 9.5 30.1089V23.1089ZM9.5 20.8589V13.8589C5.63401 13.8589 2.5 16.9929 2.5 20.8589H9.5ZM16.25 20.8589H23.25C23.25 16.9929 20.116 13.8589 16.25 13.8589V20.8589ZM16.25 23.1089V30.1089C20.116 30.1089 23.25 26.9749 23.25 23.1089H16.25ZM7.25 20.8589H0.25C0.25 24.7249 3.38401 27.8589 7.25 27.8589V20.8589ZM7.25 18.6089V11.6089C3.38401 11.6089 0.25 14.7429 0.25 18.6089H7.25ZM9.5 18.6089H16.5C16.5 14.7429 13.366 11.6089 9.5 11.6089V18.6089ZM9.5 20.8589V27.8589C13.366 27.8589 16.5 24.7249 16.5 20.8589H9.5ZM16.25 20.8589H9.25C9.25 24.7249 12.384 27.8589 16.25 27.8589V20.8589ZM16.25 16.3589V9.35889C12.384 9.35889 9.25 12.4929 9.25 16.3589H16.25ZM18.5 16.3589H25.5C25.5 12.4929 22.366 9.35889 18.5 9.35889V16.3589ZM18.5 20.8589V27.8589C22.366 27.8589 25.5 24.7249 25.5 20.8589H18.5ZM9.5 16.3589H2.5C2.5 20.2249 5.63401 23.3589 9.5 23.3589V16.3589ZM9.5 14.1089V7.10889C5.63401 7.10889 2.5 10.2429 2.5 14.1089H9.5ZM16.25 14.1089H23.25C23.25 10.2429 20.116 7.10889 16.25 7.10889V14.1089ZM16.25 16.3589V23.3589C20.116 23.3589 23.25 20.2249 23.25 16.3589H16.25ZM7.25 14.1089H0.25C0.25 17.9749 3.38401 21.1089 7.25 21.1089V14.1089ZM7.25 9.60889V2.60889C3.38401 2.60889 0.25 5.74289 0.25 9.60889H7.25ZM9.5 9.60889H16.5C16.5 5.74289 13.366 2.60889 9.5 2.60889V9.60889ZM9.5 14.1089V21.1089C13.366 21.1089 16.5 17.9749 16.5 14.1089H9.5ZM16.25 11.8589H9.25C9.25 15.7249 12.384 18.8589 16.25 18.8589V11.8589ZM16.25 9.60889V2.60889C12.384 2.60889 9.25 5.74289 9.25 9.60889H16.25ZM18.5 9.60889H25.5C25.5 5.74289 22.366 2.60889 18.5 2.60889V9.60889ZM18.5 11.8589V18.8589C22.366 18.8589 25.5 15.7249 25.5 11.8589H18.5ZM9.5 9.60889H2.5C2.5 13.4749 5.63401 16.6089 9.5 16.6089V9.60889ZM9.5 7.35889V0.358887C5.63401 0.358887 2.5 3.49289 2.5 7.35889H9.5ZM16.25 7.35889H23.25C23.25 3.49289 20.116 0.358887 16.25 0.358887V7.35889ZM16.25 9.60889V16.6089C20.116 16.6089 23.25 13.4749 23.25 9.60889H16.25ZM16.5 23.1089V20.8589H2.5V23.1089H16.5ZM9.5 27.8589H16.25V13.8589H9.5V27.8589ZM9.25 20.8589V23.1089H23.25V20.8589H9.25ZM16.25 16.1089H9.5V30.1089H16.25V16.1089ZM14.25 20.8589V18.6089H0.25V20.8589H14.25ZM7.25 25.6089H9.5V11.6089H7.25V25.6089ZM2.5 18.6089V20.8589H16.5V18.6089H2.5ZM9.5 13.8589H7.25V27.8589H9.5V13.8589ZM23.25 20.8589V16.3589H9.25V20.8589H23.25ZM16.25 23.3589H18.5V9.35889H16.25V23.3589ZM11.5 16.3589V20.8589H25.5V16.3589H11.5ZM18.5 13.8589H16.25V27.8589H18.5V13.8589ZM16.5 16.3589V14.1089H2.5V16.3589H16.5ZM9.5 21.1089H16.25V7.10889H9.5V21.1089ZM9.25 14.1089V16.3589H23.25V14.1089H9.25ZM16.25 9.35889H9.5V23.3589H16.25V9.35889ZM14.25 14.1089V9.60889H0.25V14.1089H14.25ZM7.25 16.6089H9.5V2.60889H7.25V16.6089ZM2.5 9.60889V14.1089H16.5V9.60889H2.5ZM9.5 7.10889H7.25V21.1089H9.5V7.10889ZM23.25 11.8589V9.60889H9.25V11.8589H23.25ZM16.25 16.6089H18.5V2.60889H16.25V16.6089ZM11.5 9.60889V11.8589H25.5V9.60889H11.5ZM18.5 4.85889H16.25V18.8589H18.5V4.85889ZM16.5 9.60889V7.35889H2.5V9.60889H16.5ZM9.5 14.3589H16.25V0.358887H9.5V14.3589ZM9.25 7.35889V9.60889H23.25V7.35889H9.25ZM16.25 2.60889H9.5V16.6089H16.25V2.60889ZM25.25 23.1089H18.25C18.25 26.9749 21.384 30.1089 25.25 30.1089V23.1089ZM25.25 9.60889H32.25C32.25 5.74289 29.116 2.60889 25.25 2.60889V9.60889ZM20.75 9.60889H13.75C13.75 13.4749 16.884 16.6089 20.75 16.6089V9.60889ZM20.75 7.35889V0.358887C16.884 0.358887 13.75 3.49289 13.75 7.35889H20.75ZM32 7.35889H39C39 3.49289 35.866 0.358887 32 0.358887V7.35889ZM32 9.60889V16.6089C35.866 16.6089 39 13.4749 39 9.60889H32ZM27.5 9.60889V2.60889C23.634 2.60889 20.5 5.74289 20.5 9.60889H27.5ZM27.5 23.1089V30.1089C31.366 30.1089 34.5 26.9749 34.5 23.1089H27.5ZM32.25 23.1089V9.60889H18.25V23.1089H32.25ZM25.25 2.60889H20.75V16.6089H25.25V2.60889ZM27.75 9.60889V7.35889H13.75V9.60889H27.75ZM20.75 14.3589H32V0.358887H20.75V14.3589ZM25 7.35889V9.60889H39V7.35889H25ZM32 2.60889H27.5V16.6089H32V2.60889ZM20.5 9.60889V23.1089H34.5V9.60889H20.5ZM27.5 16.1089H25.25V30.1089H27.5V16.1089ZM34.25 23.1089H27.25C27.25 26.9749 30.384 30.1089 34.25 30.1089V23.1089ZM34.25 11.8589V4.85889C30.384 4.85889 27.25 7.99289 27.25 11.8589H34.25ZM36.5 11.8589H43.5C43.5 7.99289 40.366 4.85889 36.5 4.85889V11.8589ZM36.5 14.1089H29.5C29.5 17.9749 32.634 21.1089 36.5 21.1089V14.1089ZM43.25 14.1089V21.1089C47.116 21.1089 50.25 17.9749 50.25 14.1089H43.25ZM43.25 11.8589V4.85889C39.384 4.85889 36.25 7.99289 36.25 11.8589H43.25ZM45.5 11.8589H52.5C52.5 7.99289 49.366 4.85889 45.5 4.85889V11.8589ZM45.5 23.1089V30.1089C49.366 30.1089 52.5 26.9749 52.5 23.1089H45.5ZM43.25 23.1089H36.25C36.25 26.9749 39.384 30.1089 43.25 30.1089V23.1089ZM43.25 16.3589H50.25C50.25 12.4929 47.116 9.35889 43.25 9.35889V16.3589ZM36.5 16.3589V9.35889C32.634 9.35889 29.5 12.4929 29.5 16.3589H36.5ZM36.5 23.1089V30.1089C40.366 30.1089 43.5 26.9749 43.5 23.1089H36.5ZM36.5 11.8589H29.5C29.5 15.7249 32.634 18.8589 36.5 18.8589V11.8589ZM36.5 9.60889V2.60889C32.634 2.60889 29.5 5.74289 29.5 9.60889H36.5ZM38.75 9.60889H45.75C45.75 5.74289 42.616 2.60889 38.75 2.60889V9.60889ZM38.75 11.8589V18.8589C42.616 18.8589 45.75 15.7249 45.75 11.8589H38.75ZM41 11.8589H34C34 15.7249 37.134 18.8589 41 18.8589V11.8589ZM41 9.60889V2.60889C37.134 2.60889 34 5.74289 34 9.60889H41ZM43.25 9.60889H50.25C50.25 5.74289 47.116 2.60889 43.25 2.60889V9.60889ZM43.25 11.8589V18.8589C47.116 18.8589 50.25 15.7249 50.25 11.8589H43.25ZM38.75 9.60889H31.75C31.75 13.4749 34.884 16.6089 38.75 16.6089V9.60889ZM38.75 7.35889V0.358887C34.884 0.358887 31.75 3.49289 31.75 7.35889H38.75ZM41 7.35889H48C48 3.49289 44.866 0.358887 41 0.358887V7.35889ZM41 9.60889V16.6089C44.866 16.6089 48 13.4749 48 9.60889H41ZM41.25 23.1089V11.8589H27.25V23.1089H41.25ZM34.25 18.8589H36.5V4.85889H34.25V18.8589ZM29.5 11.8589V14.1089H43.5V11.8589H29.5ZM36.5 21.1089H43.25V7.10889H36.5V21.1089ZM50.25 14.1089V11.8589H36.25V14.1089H50.25ZM43.25 18.8589H45.5V4.85889H43.25V18.8589ZM38.5 11.8589V23.1089H52.5V11.8589H38.5ZM45.5 16.1089H43.25V30.1089H45.5V16.1089ZM50.25 23.1089V16.3589H36.25V23.1089H50.25ZM43.25 9.35889H36.5V23.3589H43.25V9.35889ZM29.5 16.3589V23.1089H43.5V16.3589H29.5ZM36.5 16.1089H34.25V30.1089H36.5V16.1089ZM43.5 11.8589V9.60889H29.5V11.8589H43.5ZM36.5 16.6089H38.75V2.60889H36.5V16.6089ZM31.75 9.60889V11.8589H45.75V9.60889H31.75ZM38.75 4.85889H36.5V18.8589H38.75V4.85889ZM48 11.8589V9.60889H34V11.8589H48ZM41 16.6089H43.25V2.60889H41V16.6089ZM36.25 9.60889V11.8589H50.25V9.60889H36.25ZM43.25 4.85889H41V18.8589H43.25V4.85889ZM45.75 9.60889V7.35889H31.75V9.60889H45.75ZM38.75 14.3589H41V0.358887H38.75V14.3589ZM34 7.35889V9.60889H48V7.35889H34ZM41 2.60889H38.75V16.6089H41V2.60889ZM52.25 23.1089H45.25C45.25 26.9749 48.384 30.1089 52.25 30.1089V23.1089ZM52.25 9.60889H59.25C59.25 5.74289 56.116 2.60889 52.25 2.60889V9.60889ZM47.75 9.60889H40.75C40.75 13.4749 43.884 16.6089 47.75 16.6089V9.60889ZM47.75 7.35889V0.358887C43.884 0.358887 40.75 3.49289 40.75 7.35889H47.75ZM59 7.35889H66C66 3.49289 62.866 0.358887 59 0.358887V7.35889ZM59 9.60889V16.6089C62.866 16.6089 66 13.4749 66 9.60889H59ZM54.5 9.60889V2.60889C50.634 2.60889 47.5 5.74289 47.5 9.60889H54.5ZM54.5 23.1089V30.1089C58.366 30.1089 61.5 26.9749 61.5 23.1089H54.5ZM59.25 23.1089V9.60889H45.25V23.1089H59.25ZM52.25 2.60889H47.75V16.6089H52.25V2.60889ZM54.75 9.60889V7.35889H40.75V9.60889H54.75ZM47.75 14.3589H59V0.358887H47.75V14.3589ZM52 7.35889V9.60889H66V7.35889H52ZM59 2.60889H54.5V16.6089H59V2.60889ZM47.5 9.60889V23.1089H61.5V9.60889H47.5ZM54.5 16.1089H52.25V30.1089H54.5V16.1089ZM63.5 23.1089H56.5C56.5 26.9749 59.634 30.1089 63.5 30.1089V23.1089ZM63.5 20.8589V13.8589C59.634 13.8589 56.5 16.9929 56.5 20.8589H63.5ZM70.25 20.8589H77.25C77.25 16.9929 74.116 13.8589 70.25 13.8589V20.8589ZM70.25 23.1089V30.1089C74.116 30.1089 77.25 26.9749 77.25 23.1089H70.25ZM61.25 20.8589H54.25C54.25 24.7249 57.384 27.8589 61.25 27.8589V20.8589ZM61.25 7.35889V0.358887C57.384 0.358887 54.25 3.49289 54.25 7.35889H61.25ZM63.5 7.35889H70.5C70.5 3.49289 67.366 0.358887 63.5 0.358887V7.35889ZM63.5 20.8589V27.8589C67.366 27.8589 70.5 24.7249 70.5 20.8589H63.5ZM70.25 20.8589H63.25C63.25 24.7249 66.384 27.8589 70.25 27.8589V20.8589ZM70.25 7.35889V0.358887C66.384 0.358887 63.25 3.49289 63.25 7.35889H70.25ZM72.5 7.35889H79.5C79.5 3.49289 76.366 0.358887 72.5 0.358887V7.35889ZM72.5 20.8589V27.8589C76.366 27.8589 79.5 24.7249 79.5 20.8589H72.5ZM70.5 23.1089V20.8589H56.5V23.1089H70.5ZM63.5 27.8589H70.25V13.8589H63.5V27.8589ZM63.25 20.8589V23.1089H77.25V20.8589H63.25ZM70.25 16.1089H63.5V30.1089H70.25V16.1089ZM68.25 20.8589V7.35889H54.25V20.8589H68.25ZM61.25 14.3589H63.5V0.358887H61.25V14.3589ZM56.5 7.35889V20.8589H70.5V7.35889H56.5ZM63.5 13.8589H61.25V27.8589H63.5V13.8589ZM77.25 20.8589V7.35889H63.25V20.8589H77.25ZM70.25 14.3589H72.5V0.358887H70.25V14.3589ZM65.5 7.35889V20.8589H79.5V7.35889H65.5ZM72.5 13.8589H70.25V27.8589H72.5V13.8589ZM77 23.1089H70C70 26.9749 73.134 30.1089 77 30.1089V23.1089ZM77 20.8589V13.8589C73.134 13.8589 70 16.9929 70 20.8589H77ZM83.75 20.8589H90.75C90.75 16.9929 87.616 13.8589 83.75 13.8589V20.8589ZM83.75 23.1089V30.1089C87.616 30.1089 90.75 26.9749 90.75 23.1089H83.75ZM74.75 20.8589H67.75C67.75 24.7249 70.884 27.8589 74.75 27.8589V20.8589ZM74.75 18.6089V11.6089C70.884 11.6089 67.75 14.7429 67.75 18.6089H74.75ZM77 18.6089H84C84 14.7429 80.866 11.6089 77 11.6089V18.6089ZM77 20.8589V27.8589C80.866 27.8589 84 24.7249 84 20.8589H77ZM83.75 20.8589H76.75C76.75 24.7249 79.884 27.8589 83.75 27.8589V20.8589ZM83.75 16.3589V9.35889C79.884 9.35889 76.75 12.4929 76.75 16.3589H83.75ZM86 16.3589H93C93 12.4929 89.866 9.35889 86 9.35889V16.3589ZM86 20.8589V27.8589C89.866 27.8589 93 24.7249 93 20.8589H86ZM77 16.3589H70C70 20.2249 73.134 23.3589 77 23.3589V16.3589ZM77 14.1089V7.10889C73.134 7.10889 70 10.2429 70 14.1089H77ZM83.75 14.1089H90.75C90.75 10.2429 87.616 7.10889 83.75 7.10889V14.1089ZM83.75 16.3589V23.3589C87.616 23.3589 90.75 20.2249 90.75 16.3589H83.75ZM74.75 14.1089H67.75C67.75 17.9749 70.884 21.1089 74.75 21.1089V14.1089ZM74.75 9.60889V2.60889C70.884 2.60889 67.75 5.74289 67.75 9.60889H74.75ZM77 9.60889H84C84 5.74289 80.866 2.60889 77 2.60889V9.60889ZM77 14.1089V21.1089C80.866 21.1089 84 17.9749 84 14.1089H77ZM83.75 11.8589H76.75C76.75 15.7249 79.884 18.8589 83.75 18.8589V11.8589ZM83.75 9.60889V2.60889C79.884 2.60889 76.75 5.74289 76.75 9.60889H83.75ZM86 9.60889H93C93 5.74289 89.866 2.60889 86 2.60889V9.60889ZM86 11.8589V18.8589C89.866 18.8589 93 15.7249 93 11.8589H86ZM77 9.60889H70C70 13.4749 73.134 16.6089 77 16.6089V9.60889ZM77 7.35889V0.358887C73.134 0.358887 70 3.49289 70 7.35889H77ZM83.75 7.35889H90.75C90.75 3.49289 87.616 0.358887 83.75 0.358887V7.35889ZM83.75 9.60889V16.6089C87.616 16.6089 90.75 13.4749 90.75 9.60889H83.75ZM84 23.1089V20.8589H70V23.1089H84ZM77 27.8589H83.75V13.8589H77V27.8589ZM76.75 20.8589V23.1089H90.75V20.8589H76.75ZM83.75 16.1089H77V30.1089H83.75V16.1089ZM81.75 20.8589V18.6089H67.75V20.8589H81.75ZM74.75 25.6089H77V11.6089H74.75V25.6089ZM70 18.6089V20.8589H84V18.6089H70ZM77 13.8589H74.75V27.8589H77V13.8589ZM90.75 20.8589V16.3589H76.75V20.8589H90.75ZM83.75 23.3589H86V9.35889H83.75V23.3589ZM79 16.3589V20.8589H93V16.3589H79ZM86 13.8589H83.75V27.8589H86V13.8589ZM84 16.3589V14.1089H70V16.3589H84ZM77 21.1089H83.75V7.10889H77V21.1089ZM76.75 14.1089V16.3589H90.75V14.1089H76.75ZM83.75 9.35889H77V23.3589H83.75V9.35889ZM81.75 14.1089V9.60889H67.75V14.1089H81.75ZM74.75 16.6089H77V2.60889H74.75V16.6089ZM70 9.60889V14.1089H84V9.60889H70ZM77 7.10889H74.75V21.1089H77V7.10889ZM90.75 11.8589V9.60889H76.75V11.8589H90.75ZM83.75 16.6089H86V2.60889H83.75V16.6089ZM79 9.60889V11.8589H93V9.60889H79ZM86 4.85889H83.75V18.8589H86V4.85889ZM84 9.60889V7.35889H70V9.60889H84ZM77 14.3589H83.75V0.358887H77V14.3589ZM76.75 7.35889V9.60889H90.75V7.35889H76.75ZM83.75 2.60889H77V16.6089H83.75V2.60889ZM10.6875 50.1089H3.6875C3.6875 53.9749 6.82151 57.1089 10.6875 57.1089V50.1089ZM10.6875 46.6714V39.6714C6.82151 39.6714 3.6875 42.8054 3.6875 46.6714H10.6875ZM21 46.6714H28C28 42.8054 24.866 39.6714 21 39.6714V46.6714ZM21 50.1089V57.1089C24.866 57.1089 28 53.9749 28 50.1089H21ZM21 46.6714H14C14 50.5374 17.134 53.6714 21 53.6714V46.6714ZM21 43.2339V36.2339C17.134 36.2339 14 39.3679 14 43.2339H21ZM24.4375 43.2339H31.4375C31.4375 39.3679 28.3035 36.2339 24.4375 36.2339V43.2339ZM24.4375 46.6714V53.6714C28.3035 53.6714 31.4375 50.5374 31.4375 46.6714H24.4375ZM7.25 46.6714H0.25C0.25 50.5374 3.38401 53.6714 7.25 53.6714V46.6714ZM7.25 29.4839V22.4839C3.38401 22.4839 0.25 25.6179 0.25 29.4839H7.25ZM10.6875 29.4839H17.6875C17.6875 25.6179 14.5535 22.4839 10.6875 22.4839V29.4839ZM10.6875 46.6714V53.6714C14.5535 53.6714 17.6875 50.5374 17.6875 46.6714H10.6875ZM21 32.9214H14C14 36.7874 17.134 39.9214 21 39.9214V32.9214ZM21 29.4839V22.4839C17.134 22.4839 14 25.6179 14 29.4839H21ZM24.4375 29.4839H31.4375C31.4375 25.6179 28.3035 22.4839 24.4375 22.4839V29.4839ZM24.4375 32.9214V39.9214C28.3035 39.9214 31.4375 36.7874 31.4375 32.9214H24.4375ZM10.6875 29.4839H3.6875C3.6875 33.3499 6.82151 36.4839 10.6875 36.4839V29.4839ZM10.6875 26.0464V19.0464C6.82151 19.0464 3.6875 22.1804 3.6875 26.0464H10.6875ZM21 26.0464H28C28 22.1804 24.866 19.0464 21 19.0464V26.0464ZM21 29.4839V36.4839C24.866 36.4839 28 33.3499 28 29.4839H21ZM17.6875 50.1089V46.6714H3.6875V50.1089H17.6875ZM10.6875 53.6714H21V39.6714H10.6875V53.6714ZM14 46.6714V50.1089H28V46.6714H14ZM21 43.1089H10.6875V57.1089H21V43.1089ZM28 46.6714V43.2339H14V46.6714H28ZM21 50.2339H24.4375V36.2339H21V50.2339ZM17.4375 43.2339V46.6714H31.4375V43.2339H17.4375ZM24.4375 39.6714H21V53.6714H24.4375V39.6714ZM14.25 46.6714V29.4839H0.25V46.6714H14.25ZM7.25 36.4839H10.6875V22.4839H7.25V36.4839ZM3.6875 29.4839V46.6714H17.6875V29.4839H3.6875ZM10.6875 39.6714H7.25V53.6714H10.6875V39.6714ZM28 32.9214V29.4839H14V32.9214H28ZM21 36.4839H24.4375V22.4839H21V36.4839ZM17.4375 29.4839V32.9214H31.4375V29.4839H17.4375ZM24.4375 25.9214H21V39.9214H24.4375V25.9214ZM17.6875 29.4839V26.0464H3.6875V29.4839H17.6875ZM10.6875 33.0464H21V19.0464H10.6875V33.0464ZM14 26.0464V29.4839H28V26.0464H14ZM21 22.4839H10.6875V36.4839H21V22.4839ZM31.3125 50.1089H24.3125C24.3125 53.9749 27.4465 57.1089 31.3125 57.1089V50.1089ZM31.3125 46.6714V39.6714C27.4465 39.6714 24.3125 42.8054 24.3125 46.6714H31.3125ZM41.625 46.6714H48.625C48.625 42.8054 45.491 39.6714 41.625 39.6714V46.6714ZM41.625 50.1089V57.1089C45.491 57.1089 48.625 53.9749 48.625 50.1089H41.625ZM27.875 46.6714H20.875C20.875 50.5374 24.009 53.6714 27.875 53.6714V46.6714ZM27.875 29.4839V22.4839C24.009 22.4839 20.875 25.6179 20.875 29.4839H27.875ZM31.3125 29.4839H38.3125C38.3125 25.6179 35.1785 22.4839 31.3125 22.4839V29.4839ZM31.3125 46.6714V53.6714C35.1785 53.6714 38.3125 50.5374 38.3125 46.6714H31.3125ZM41.625 46.6714H34.625C34.625 50.5374 37.759 53.6714 41.625 53.6714V46.6714ZM41.625 29.4839V22.4839C37.759 22.4839 34.625 25.6179 34.625 29.4839H41.625ZM45.0625 29.4839H52.0625C52.0625 25.6179 48.9285 22.4839 45.0625 22.4839V29.4839ZM45.0625 46.6714V53.6714C48.9285 53.6714 52.0625 50.5374 52.0625 46.6714H45.0625ZM31.3125 29.4839H24.3125C24.3125 33.3499 27.4465 36.4839 31.3125 36.4839V29.4839ZM31.3125 26.0464V19.0464C27.4465 19.0464 24.3125 22.1804 24.3125 26.0464H31.3125ZM41.625 26.0464H48.625C48.625 22.1804 45.491 19.0464 41.625 19.0464V26.0464ZM41.625 29.4839V36.4839C45.491 36.4839 48.625 33.3499 48.625 29.4839H41.625ZM38.3125 50.1089V46.6714H24.3125V50.1089H38.3125ZM31.3125 53.6714H41.625V39.6714H31.3125V53.6714ZM34.625 46.6714V50.1089H48.625V46.6714H34.625ZM41.625 43.1089H31.3125V57.1089H41.625V43.1089ZM34.875 46.6714V29.4839H20.875V46.6714H34.875ZM27.875 36.4839H31.3125V22.4839H27.875V36.4839ZM24.3125 29.4839V46.6714H38.3125V29.4839H24.3125ZM31.3125 39.6714H27.875V53.6714H31.3125V39.6714ZM48.625 46.6714V29.4839H34.625V46.6714H48.625ZM41.625 36.4839H45.0625V22.4839H41.625V36.4839ZM38.0625 29.4839V46.6714H52.0625V29.4839H38.0625ZM45.0625 39.6714H41.625V53.6714H45.0625V39.6714ZM38.3125 29.4839V26.0464H24.3125V29.4839H38.3125ZM31.3125 33.0464H41.625V19.0464H31.3125V33.0464ZM34.625 26.0464V29.4839H48.625V26.0464H34.625ZM41.625 22.4839H31.3125V36.4839H41.625V22.4839ZM62.25 46.6714H55.25C55.25 50.5374 58.384 53.6714 62.25 53.6714V46.6714ZM62.25 29.4839V22.4839C58.384 22.4839 55.25 25.6179 55.25 29.4839H62.25ZM65.6875 29.4839H72.6875C72.6875 25.6179 69.5535 22.4839 65.6875 22.4839V29.4839ZM65.6875 46.6714V53.6714C69.5535 53.6714 72.6875 50.5374 72.6875 46.6714H65.6875ZM48.5 50.1089H41.5C41.5 53.9749 44.634 57.1089 48.5 57.1089V50.1089ZM48.5 26.0464V19.0464C44.634 19.0464 41.5 22.1804 41.5 26.0464H48.5ZM62.25 26.0464H69.25C69.25 22.1804 66.116 19.0464 62.25 19.0464V26.0464ZM62.25 29.4839V36.4839C66.116 36.4839 69.25 33.3499 69.25 29.4839H62.25ZM51.9375 29.4839V22.4839C48.0715 22.4839 44.9375 25.6179 44.9375 29.4839H51.9375ZM51.9375 46.6714H44.9375C44.9375 50.5374 48.0715 53.6714 51.9375 53.6714V46.6714ZM62.25 46.6714H69.25C69.25 42.8054 66.116 39.6714 62.25 39.6714V46.6714ZM62.25 50.1089V57.1089C66.116 57.1089 69.25 53.9749 69.25 50.1089H62.25ZM69.25 46.6714V29.4839H55.25V46.6714H69.25ZM62.25 36.4839H65.6875V22.4839H62.25V36.4839ZM58.6875 29.4839V46.6714H72.6875V29.4839H58.6875ZM65.6875 39.6714H62.25V53.6714H65.6875V39.6714ZM55.5 50.1089V26.0464H41.5V50.1089H55.5ZM48.5 33.0464H62.25V19.0464H48.5V33.0464ZM55.25 26.0464V29.4839H69.25V26.0464H55.25ZM62.25 22.4839H51.9375V36.4839H62.25V22.4839ZM44.9375 29.4839V46.6714H58.9375V29.4839H44.9375ZM51.9375 53.6714H62.25V39.6714H51.9375V53.6714ZM55.25 46.6714V50.1089H69.25V46.6714H55.25ZM62.25 43.1089H48.5V57.1089H62.25V43.1089ZM69.125 50.1089H62.125C62.125 53.9749 65.259 57.1089 69.125 57.1089V50.1089ZM69.125 26.0464V19.0464C65.259 19.0464 62.125 22.1804 62.125 26.0464H69.125ZM86.3125 26.0464H93.3125C93.3125 22.1804 90.1785 19.0464 86.3125 19.0464V26.0464ZM86.3125 29.4839V36.4839C90.1785 36.4839 93.3125 33.3499 93.3125 29.4839H86.3125ZM72.5625 29.4839V22.4839C68.6965 22.4839 65.5625 25.6179 65.5625 29.4839H72.5625ZM72.5625 36.3589H65.5625C65.5625 40.2249 68.6965 43.3589 72.5625 43.3589V36.3589ZM82.875 36.3589H89.875C89.875 32.4929 86.741 29.3589 82.875 29.3589V36.3589ZM82.875 39.7964V46.7964C86.741 46.7964 89.875 43.6624 89.875 39.7964H82.875ZM72.5625 39.7964V32.7964C68.6965 32.7964 65.5625 35.9304 65.5625 39.7964H72.5625ZM72.5625 46.6714H65.5625C65.5625 50.5374 68.6965 53.6714 72.5625 53.6714V46.6714ZM86.3125 46.6714H93.3125C93.3125 42.8054 90.1785 39.6714 86.3125 39.6714V46.6714ZM86.3125 50.1089V57.1089C90.1785 57.1089 93.3125 53.9749 93.3125 50.1089H86.3125ZM76.125 50.1089V26.0464H62.125V50.1089H76.125ZM69.125 33.0464H86.3125V19.0464H69.125V33.0464ZM79.3125 26.0464V29.4839H93.3125V26.0464H79.3125ZM86.3125 22.4839H72.5625V36.4839H86.3125V22.4839ZM65.5625 29.4839V36.3589H79.5625V29.4839H65.5625ZM72.5625 43.3589H82.875V29.3589H72.5625V43.3589ZM75.875 36.3589V39.7964H89.875V36.3589H75.875ZM82.875 32.7964H72.5625V46.7964H82.875V32.7964ZM65.5625 39.7964V46.6714H79.5625V39.7964H65.5625ZM72.5625 53.6714H86.3125V39.6714H72.5625V53.6714ZM79.3125 46.6714V50.1089H93.3125V46.6714H79.3125ZM86.3125 43.1089H69.125V57.1089H86.3125V43.1089Z" fill="#181917" mask="url(#path-1-outside-1_2126_2)"/>
<mask id="path-3-outside-2_2126_2" maskUnits="userSpaceOnUse" x="86" y="1" width="31" height="56" fill="black">
<rect fill="white" x="86" y="1" width="31" height="56"/>
<path d="M92 51V44.75H98.25V19.75H92V13.5H98.25V7.25H104.5V44.75H110.75V51H92Z"/>
</mask>
<path d="M92 51V44.75H98.25V19.75H92V13.5H98.25V7.25H104.5V44.75H110.75V51H92Z" fill="#E5141F"/>
<path d="M92 51H86C86 54.3137 88.6863 57 92 57V51ZM92 44.75V38.75C88.6863 38.75 86 41.4363 86 44.75H92ZM98.25 44.75V50.75C101.564 50.75 104.25 48.0637 104.25 44.75H98.25ZM98.25 19.75H104.25C104.25 16.4363 101.564 13.75 98.25 13.75V19.75ZM92 19.75H86C86 23.0637 88.6863 25.75 92 25.75V19.75ZM92 13.5V7.5C88.6863 7.5 86 10.1863 86 13.5H92ZM98.25 13.5V19.5C101.564 19.5 104.25 16.8137 104.25 13.5H98.25ZM98.25 7.25V1.25C94.9363 1.25 92.25 3.93629 92.25 7.25H98.25ZM104.5 7.25H110.5C110.5 3.93629 107.814 1.25 104.5 1.25V7.25ZM104.5 44.75H98.5C98.5 48.0637 101.186 50.75 104.5 50.75V44.75ZM110.75 44.75H116.75C116.75 41.4363 114.064 38.75 110.75 38.75V44.75ZM110.75 51V57C114.064 57 116.75 54.3137 116.75 51H110.75ZM98 51V44.75H86V51H98ZM92 50.75H98.25V38.75H92V50.75ZM104.25 44.75V19.75H92.25V44.75H104.25ZM98.25 13.75H92V25.75H98.25V13.75ZM98 19.75V13.5H86V19.75H98ZM92 19.5H98.25V7.5H92V19.5ZM104.25 13.5V7.25H92.25V13.5H104.25ZM98.25 13.25H104.5V1.25H98.25V13.25ZM98.5 7.25V44.75H110.5V7.25H98.5ZM104.5 50.75H110.75V38.75H104.5V50.75ZM104.75 44.75V51H116.75V44.75H104.75ZM110.75 45H92V57H110.75V45Z" fill="#181917" mask="url(#path-3-outside-2_2126_2)"/>
<rect x="89" y="24" width="7" height="17" fill="#181917"/>
<ellipse cx="91.5" cy="4" rx="6.5" ry="4" fill="#181917"/>
</svg>
